<?xml version="1.0" encoding="UTF-8"?>
<svg width="15px" height="27px" viewBox="0 0 15 27" version="1.1" xmlns="http://www.w3.org/2000/svg" xmlns:xlink="http://www.w3.org/1999/xlink">
    <!-- Generator: Sketch 50.2 (55047) - http://www.bohemiancoding.com/sketch -->
    <title>Artboard 2</title>
    <desc>Created with Sketch.</desc>
    <defs></defs>
    <g id="Artboard-2" stroke="none" stroke-width="1" fill="none" fill-rule="evenodd">
        <g id="Group-5" fill="#F9B002" fill-rule="nonzero">
            <g id="noun_1169709_cc">
                <path d="M15.0893855,9.56344318 C15.1889268,9.45108214 15.213058,9.28970454 15.1512217,9.15245817 C15.0893855,9.0152118 14.9521391,8.92698199 14.802073,8.92698199 L9.73225233,10.4351839 C9.65231763,10.4351839 9.57841574,10.391446 9.53920249,10.3213146 C9.49998924,10.2511832 9.50225155,10.1652157 9.5452353,10.0973467 L14.0426933,1.3641036 C14.1716446,1.15747994 14.1784315,0.896561016 14.0592836,0.683904549 C13.9408897,0.470493981 13.7161676,0.338526316 13.472593,0.338526316 L7.34476874,0.338526316 C7.09365313,0.338526316 6.86289824,0.479543193 6.74752079,0.702757073 L0.0556289987,15.239561 C0.0149075477,15.3187416 0.0179239514,15.4145124 0.0646782101,15.4914307 C0.11218657,15.568349 0.195137674,15.6151033 0.284875686,15.6151033 L4.47013593,14.1069014 C4.59757899,14.1069014 4.71672694,14.1702459 4.78836653,14.2765741 C4.85925202,14.3821482 4.87357994,14.5163782 4.82531748,14.634772 L0.125006286,26.2139921 C0.103137358,26.2675332 0.123498084,26.3293695 0.172514645,26.3595335 C0.221531207,26.3896976 0.285629787,26.3798943 0.324088935,26.3369105 L15.0893855,9.56344318 Z" id="Shape"></path>
            </g>
        </g>
    </g>
</svg>