<?xml version="1.0" encoding="UTF-8"?>
<svg width="32px" height="32px" viewBox="0 0 32 32" version="1.1" xmlns="http://www.w3.org/2000/svg" xmlns:xlink="http://www.w3.org/1999/xlink">
    <!-- Generator: Sketch 50.2 (55047) - http://www.bohemiancoding.com/sketch -->
    <title>Artboard 3 Copy</title>
    <desc>Created with Sketch.</desc>
    <defs></defs>
    <g id="Artboard-3-Copy" stroke="none" stroke-width="1" fill="none" fill-rule="evenodd">
        <g id="Group-4" transform="translate(0.000000, 4.000000)" fill-rule="nonzero">
            <g id="Group-Copy" transform="translate(7.245283, 0.000000)">
                <g id="Group">
                    <polygon id="Shape" fill="#F8B000" points="11.4394612 0.151425284 12.3609725 1.24048792 13.4558663 0.338832813 14.1740817 1.58052014 15.4072166 0.894758507 15.8991927 2.24889035 17.2313618 1.80181095 17.4395949 3.22460891 18.7862852 3.03030478 18.7862852 4.4764912 20.2264915 4.5409594 19.9970576 5.96405721 21.3730805 6.2854986 20.8857511 7.63933059 22.1763898 8.20755022 21.459336 9.4489377 22.6288684 10.2453447 21.7073571 11.3341075 22.7200611 12.3332145 21.6251674 13.2348696 22.4485159 14.4045925 21.2148001 15.0897544 21.8229453 16.3926115 20.4907762 16.8393911 20.863679 18.2331034 19.4757487 18.4271077 19.6015018 19.8672971 18.202245 19.8022292 18.0767824 21.2424185 16.7115051 20.9206773 16.3391832 22.3146895 15.0511583 21.7458701 14.443594 23.0490271 13.2746425 22.2520204 12.4515844 23.4223429 11.4394612 22.4226362 10.427338 23.4223429 9.60398949 22.2520204 8.4353284 23.0490271 7.82776403 21.7458701 6.54002962 22.3146895 6.16741724 20.9206773 4.80213996 21.2424185 4.67667733 19.8022292 3.27742059 19.8672971 3.40317363 18.4271077 2.01495295 18.2331034 2.38814617 16.8393911 1.05597707 16.3926115 1.66383186 15.0897544 0.430406496 14.4045925 1.25375496 13.2348696 0.158570814 12.3332145 1.17098448 11.3341075 0.249473131 10.2453447 1.41842465 9.4489377 0.699918796 8.20755022 1.98794364 7.63933059 1.49538667 6.2854986 2.86124481 5.96405721 2.5928942 4.5409594 3.97472558 4.4764912 3.97472558 3.03030478 5.3800812 3.22460891 5.63884786 1.80181095 6.9753733 2.24889035 7.46938237 0.894758507 8.70396943 1.58052014 9.42247528 0.338832813 10.5179498 1.24048792"></polygon>
                    <ellipse id="Oval" fill="#F6D100" cx="11.4394612" cy="11.8102726" rx="8.34762073" ry="8.61864738"></ellipse>
                </g>
                <polyline id="Shape" fill="#EAA200" points="11.4716981 0 12.3841591 1.09400959 13.4682997 0.188258809 14.1794614 1.43558637 15.4004856 0.746709738 15.8876299 2.10699258 17.2067155 1.65788237 17.4129036 3.08714325 18.7463677 2.89195651 18.7463677 4.34471209 20.1724296 4.40947312 19.9452489 5.8390352 21.3077577 6.16193671 20.8252145 7.52191835 22.1031776 8.09271905 21.3931661 9.3397454 22.5512123 10.13977 21.6387513 11.2334784 22.6415094 12.2371238 21.5573688 13.1428745 22.3726311 14.3179107 21.1510318 15.0061849 21.7532043 16.3149602 20.4341187 16.7637692 20.8033591 18.1638123 19.42906 18.3586978 19.553578 19.8054291 18.1680636 19.7400656 18.0438331 21.1867969 16.6919644 20.8635942 16.3232991 22.2639385 15.0479242 21.6925354 14.4463268 23.0016118 13.2888558 22.2009848 12.4738811 23.3766234 11.4716981 22.3723756"></polyline>
                <path d="M11.4716981,3.11688312 C16.139679,3.11688312 19.9245283,6.954538 19.9245283,11.6883117 C19.9245283,16.4220854 16.139973,20.2597403 11.4716981,20.2597403" id="Shape" fill="#EAC300"></path>
            </g>
            <g id="cloud-1" transform="translate(0.000000, 5.922078)">
                <g id="Group">
                    <path d="M20.3596066,6.20963132 C20.0212459,2.863327 17.2718689,0.254440008 13.928918,0.254440008 C13.3156721,0.254440008 12.7231475,0.345099438 12.1610492,0.509149835 C10.9862295,0.842377205 9.96695082,1.50910176 9.17639344,2.39087265 C8.70111475,2.20037992 8.18544262,2.09811824 7.64432787,2.09811824 C5.47068852,2.09811824 3.68209836,3.79015778 3.44970492,5.96166699 C1.55016393,6.12086063 0.0569180328,7.72089165 0.0569180328,9.71620857 C0.0569180328,11.8162155 1.7117377,13.4842411 3.75370492,13.4842411 C3.85495082,13.4842411 10.9453115,13.4842411 15.4258361,13.4842411 C17.4699016,13.4842411 18.9712787,13.4842411 19.0171803,13.4842411 C21.0588852,13.4842411 22.7139672,11.8172948 22.7139672,9.71674821 C22.7139672,8.10349603 21.736918,6.76249196 20.3596066,6.20963132 Z" id="Shape" fill="#F7F4F4"></path>
                    <path d="M20.3596066,6.20963132 C20.0212459,2.863327 17.2718689,0.254440008 13.928918,0.254440008 C13.3070164,0.254440008 12.7060984,0.346988176 12.1366557,0.515625509 C14.6229508,1.2552014 16.4928525,3.48903896 16.7674754,6.20990114 C18.1455738,6.76276178 19.1223607,8.08191045 19.1223607,9.69489281 C19.1223607,11.7954394 17.4670164,13.4399907 15.4255738,13.4399907 C17.4696393,13.4399907 18.9710164,13.4399907 19.016918,13.4399907 C21.058623,13.4399907 22.7137049,11.7954394 22.7137049,9.69489281 C22.7139672,8.08137081 21.736918,6.76249196 20.3596066,6.20963132 Z" id="Shape" fill="#000000" opacity="0.03"></path>
                    <path d="M29.175082,9.76666486 C28.7881967,5.94277961 25.6469508,2.9618112 21.8274098,2.9618112 C21.1262951,2.9618112 20.4490492,3.06515216 19.8066885,3.2529467 C18.4650492,3.63339252 17.2999344,4.39590308 16.3968525,5.40287032 C15.8541639,5.1851258 15.264,5.06856368 14.6462951,5.06856368 C12.1623607,5.06856368 10.1188197,7.00182206 9.85337705,9.48308432 C7.68314754,9.66521264 5.97639344,11.4900035 5.97639344,13.7694406 C5.97639344,16.1692173 7.86780328,18.0709068 10.2006557,18.0709068 C10.3158033,18.0709068 18.4178361,18.0709068 23.5375738,18.0709068 C25.8730492,18.0709068 27.588459,18.0709068 27.6411803,18.0709068 C29.9742951,18.0709068 31.8654426,16.1700267 31.8654426,13.7705199 C31.8654426,11.9271115 30.749377,10.3983129 29.175082,9.76666486 Z" id="Shape" fill="#EDEDED"></path>
                    <path d="M29.175082,9.76666486 C28.7881967,5.94277961 25.6469508,2.9618112 21.8274098,2.9618112 C21.1165902,2.9618112 20.4299016,3.06731072 19.7791475,3.25996201 C22.6200656,4.10476759 24.756459,6.65699244 25.0712131,9.76639504 C26.6457705,10.398043 27.7615738,11.9052561 27.7615738,13.7486645 C27.7615738,16.1484412 25.8701639,18.0274658 23.5375738,18.0274658 C25.8730492,18.0274658 27.588459,18.0274658 27.6411803,18.0274658 C29.9742951,18.0274658 31.8654426,16.1481714 31.8654426,13.7486645 C31.8654426,11.9055259 30.749377,10.3983129 29.175082,9.76666486 Z" id="Shape" fill="#000000" opacity="0.03"></path>
                </g>
            </g>
        </g>
    </g>
</svg>