<?xml version="1.0" encoding="UTF-8"?>
<svg width="65px" height="65px" viewBox="0 0 65 65" version="1.1" xmlns="http://www.w3.org/2000/svg" xmlns:xlink="http://www.w3.org/1999/xlink">
    <!-- Generator: Sketch 50.2 (55047) - http://www.bohemiancoding.com/sketch -->
    <title>Artboard 8</title>
    <desc>Created with Sketch.</desc>
    <defs></defs>
    <g id="Artboard-8" stroke="none" stroke-width="1" fill="none" fill-rule="evenodd">
        <g id="Icon">
            <path d="M32.5,65 C50.4492544,65 65,50.4492544 65,32.5 C65,14.5507456 50.4492544,0 32.5,0 C14.5507456,0 0,14.5507456 0,32.5 C0,50.4492544 14.5507456,65 32.5,65 Z" id="Oval-9" fill-opacity="0.365149457" fill="#FFC300"></path>
            <path d="M41.875,25.6666667 L40.3125,25.6666667 L40.3125,22.6190476 C40.3125,18.4133333 36.8125,15 32.5,15 C28.1875,15 24.6875,18.4133333 24.6875,22.6190476 L24.6875,25.6666667 L23.125,25.6666667 C21.40625,25.6666667 20,27.0380952 20,28.7142857 L20,43.952381 C20,45.6285714 21.40625,47 23.125,47 L41.875,47 C43.59375,47 45,45.6285714 45,43.952381 L45,28.7142857 C45,27.0380952 43.59375,25.6666667 41.875,25.6666667 Z M32.5,39.3809524 C30.78125,39.3809524 29.375,38.0095238 29.375,36.3333333 C29.375,34.6571429 30.78125,33.2857143 32.5,33.2857143 C34.21875,33.2857143 35.625,34.6571429 35.625,36.3333333 C35.625,38.0095238 34.21875,39.3809524 32.5,39.3809524 Z M37.34375,25.6666667 L27.65625,25.6666667 L27.65625,22.6190476 C27.65625,20.0133333 29.828125,17.8952381 32.5,17.8952381 C35.171875,17.8952381 37.34375,20.0133333 37.34375,22.6190476 L37.34375,25.6666667 Z" id="Shape" fill="#F9B002" fill-rule="nonzero"></path>
        </g>
    </g>
</svg>