<?xml version="1.0" encoding="UTF-8"?>
<svg width="37px" height="32px" viewBox="0 0 37 32" version="1.1" xmlns="http://www.w3.org/2000/svg" xmlns:xlink="http://www.w3.org/1999/xlink">
    <!-- Generator: Sketch 50.2 (55047) - http://www.bohemiancoding.com/sketch -->
    <title>Artboard 3 Copy</title>
    <desc>Created with Sketch.</desc>
    <defs></defs>
    <g id="Artboard-3-Copy" stroke="none" stroke-width="1" fill="none" fill-rule="evenodd">
        <g id="Group-2" fill-rule="nonzero">
            <g id="cloud-1-copy">
                <g id="Group">
                    <path d="M23.5407951,6.92654369 C23.1495656,3.19390291 19.9705984,0.283815534 16.1053115,0.283815534 C15.3962459,0.283815534 14.7111393,0.384941748 14.0612131,0.567932039 C12.7028279,0.939631068 11.5242869,1.6833301 10.6102049,2.66690291 C10.0606639,2.45441748 9.46441803,2.34034951 8.8387541,2.34034951 C6.32548361,2.34034951 4.25742623,4.22773786 3.98872131,6.64995146 C1.79237705,6.82752427 0.0658114754,8.61228155 0.0658114754,10.8379612 C0.0658114754,13.1804175 1.97919672,15.0410194 4.34022131,15.0410194 C4.45728689,15.0410194 12.6555164,15.0410194 17.836123,15.0410194 C20.1995738,15.0410194 21.935541,15.0410194 21.9886148,15.0410194 C24.3493361,15.0410194 26.2630246,13.1816214 26.2630246,10.8385631 C26.2630246,9.03905825 25.1333115,7.54323301 23.5407951,6.92654369 Z" id="Shape" fill="#F7F4F4"></path>
                    <path d="M23.5407951,6.92654369 C23.1495656,3.19390291 19.9705984,0.283815534 16.1053115,0.283815534 C15.3862377,0.283815534 14.6914262,0.387048544 14.0330082,0.57515534 C16.9077869,1.4001165 19.0698607,3.89185437 19.3873934,6.92684466 C20.9808197,7.54353398 22.1102295,9.01498058 22.1102295,10.8141845 C22.1102295,13.1572427 20.1962377,14.9916602 17.8358197,14.9916602 C20.1992705,14.9916602 21.9352377,14.9916602 21.9883115,14.9916602 C24.3490328,14.9916602 26.2627213,13.1572427 26.2627213,10.8141845 C26.2630246,9.01437864 25.1333115,7.54323301 23.5407951,6.92654369 Z" id="Shape" fill="#000000" opacity="0.03"></path>
                    <path d="M33.7336885,10.8942427 C33.2863525,6.6288835 29.6542869,3.30375728 25.2379426,3.30375728 C24.4272787,3.30375728 23.6442131,3.41902913 22.9014836,3.62850485 C21.3502131,4.05287379 20.0030492,4.90341748 18.9588607,6.02664078 C18.331377,5.78375728 17.649,5.65373786 16.9347787,5.65373786 C14.0627295,5.65373786 11.6998852,7.81019417 11.3929672,10.5779223 C8.88363934,10.7810777 6.91020492,12.8165437 6.91020492,15.3591456 C6.91020492,18.0359806 9.09714754,20.1572233 11.7945082,20.1572233 C11.9276475,20.1572233 21.295623,20.1572233 27.2153197,20.1572233 C29.9157131,20.1572233 31.8991557,20.1572233 31.9601148,20.1572233 C34.6577787,20.1572233 36.844418,18.0368835 36.844418,15.3603495 C36.844418,13.3041165 35.5539672,11.5988155 33.7336885,10.8942427 Z" id="Shape" fill="#EDEDED"></path>
                    <path d="M33.7336885,10.8942427 C33.2863525,6.6288835 29.6542869,3.30375728 25.2379426,3.30375728 C24.4160574,3.30375728 23.6220738,3.42143689 22.8696393,3.6363301 C26.1544508,4.5786699 28.6246557,7.4255534 28.9885902,10.8939417 C30.8091721,11.5985146 32.0993197,13.2797379 32.0993197,15.3359709 C32.0993197,18.0128058 29.912377,20.108767 27.2153197,20.108767 C29.9157131,20.108767 31.8991557,20.108767 31.9601148,20.108767 C34.6577787,20.108767 36.844418,18.0125049 36.844418,15.3359709 C36.844418,13.2800388 35.5539672,11.5988155 33.7336885,10.8942427 Z" id="Shape" fill="#000000" opacity="0.03"></path>
                </g>
            </g>
            <g id="rain" transform="translate(6.065574, 21.368932)">
                <g id="Group">
                    <g id="Shape">
                        <path d="M26.3955574,2.85771845 C26.3955574,3.77567961 25.6455492,4.51937864 24.7211557,4.51937864 C23.7961557,4.51937864 23.0464508,3.77537864 23.0464508,2.85771845 C23.0464508,1.93975728 24.7211557,0.263048544 24.7211557,0.263048544 C24.7211557,0.263048544 26.3955574,1.93975728 26.3955574,2.85771845" fill="#F7F4F4"></path>
                        <path d="M24.7211557,0.263048544 L24.7211557,4.51967961 C25.6458525,4.51967961 26.3955574,3.77567961 26.3955574,2.85801942 C26.3955574,1.93975728 24.7211557,0.263048544 24.7211557,0.263048544" fill="#E5E5E5"></path>
                        <path d="M18.7911475,2.85771845 C18.7911475,3.77567961 18.0411393,4.51937864 17.1164426,4.51937864 C16.1914426,4.51937864 15.442041,3.77537864 15.442041,2.85771845 C15.442041,1.93975728 17.1164426,0.263048544 17.1164426,0.263048544 C17.1164426,0.263048544 18.7911475,1.93975728 18.7911475,2.85771845" fill="#F7F4F4"></path>
                        <path d="M17.1164426,0.263048544 L17.1164426,4.51967961 C18.0411393,4.51967961 18.7911475,3.77567961 18.7911475,2.85801942 C18.7911475,1.93975728 17.1164426,0.263048544 17.1164426,0.263048544" fill="#E5E5E5"></path>
                        <path d="M11.1867377,2.85771845 C11.1867377,3.77567961 10.4367295,4.51937864 9.51233607,4.51937864 C8.58733607,4.51937864 7.83793443,3.77537864 7.83793443,2.85771845 C7.83793443,1.93975728 9.51233607,0.263048544 9.51233607,0.263048544 C9.51233607,0.263048544 11.1867377,1.93975728 11.1867377,2.85771845" fill="#F7F4F4"></path>
                        <path d="M9.51203279,0.263048544 L9.51203279,4.51967961 C10.4367295,4.51967961 11.1864344,3.77567961 11.1864344,2.85801942 C11.1867377,1.93975728 9.51203279,0.263048544 9.51203279,0.263048544" fill="#E5E5E5"></path>
                        <path d="M22.5933525,7.95074757 C22.5933525,8.86870874 21.8433443,9.61240777 20.9189508,9.61240777 C19.9939508,9.61240777 19.2442459,8.86840777 19.2442459,7.95074757 C19.2442459,7.03278641 20.9189508,5.35607767 20.9189508,5.35607767 C20.9189508,5.35607767 22.5933525,7.03278641 22.5933525,7.95074757" fill="#F7F4F4"></path>
                        <path d="M20.9189508,5.35607767 L20.9189508,9.61270874 C21.8436475,9.61270874 22.5933525,8.86870874 22.5933525,7.95104854 C22.5933525,7.03278641 20.9189508,5.35607767 20.9189508,5.35607767" fill="#E5E5E5"></path>
                        <path d="M14.9889426,7.95074757 C14.9889426,8.86870874 14.2389344,9.61240777 13.314541,9.61240777 C12.389541,9.61240777 11.6401393,8.86840777 11.6401393,7.95074757 C11.6401393,7.03278641 13.314541,5.35607767 13.314541,5.35607767 C13.314541,5.35607767 14.9889426,7.03278641 14.9889426,7.95074757" fill="#F7F4F4"></path>
                        <path d="M13.3142377,5.35607767 L13.3142377,9.61270874 C14.2389344,9.61270874 14.9886393,8.86870874 14.9886393,7.95104854 C14.9889426,7.03278641 13.3142377,5.35607767 13.3142377,5.35607767" fill="#E5E5E5"></path>
                        <path d="M3.58232787,2.85771845 C3.58232787,3.77567961 2.83231967,4.51937864 1.90762295,4.51937864 C0.982622951,4.51937864 0.233221311,3.77537864 0.233221311,2.85771845 C0.233221311,1.93975728 1.90762295,0.263048544 1.90762295,0.263048544 C1.90762295,0.263048544 3.58232787,1.93975728 3.58232787,2.85771845" fill="#F7F4F4"></path>
                        <path d="M1.90762295,0.263048544 L1.90762295,4.51967961 C2.83231967,4.51967961 3.58232787,3.77567961 3.58232787,2.85801942 C3.58232787,1.93975728 1.90762295,0.263048544 1.90762295,0.263048544" fill="#E5E5E5"></path>
                        <path d="M7.38453279,7.95074757 C7.38453279,8.86870874 6.63452459,9.61240777 5.71013115,9.61240777 C4.78513115,9.61240777 4.03572951,8.86840777 4.03572951,7.95074757 C4.03572951,7.03278641 5.71013115,5.35607767 5.71013115,5.35607767 C5.71013115,5.35607767 7.38453279,7.03278641 7.38453279,7.95074757" fill="#F7F4F4"></path>
                        <path d="M5.70982787,5.35607767 L5.70982787,9.61270874 C6.63452459,9.61270874 7.38422951,8.86870874 7.38422951,7.95104854 C7.38453279,7.03278641 5.70982787,5.35607767 5.70982787,5.35607767" fill="#E5E5E5"></path>
                    </g>
                </g>
            </g>
        </g>
    </g>
</svg>