<?xml version="1.0" encoding="UTF-8"?>
<svg width="29px" height="32px" viewBox="0 0 29 32" version="1.1" xmlns="http://www.w3.org/2000/svg" xmlns:xlink="http://www.w3.org/1999/xlink">
    <!-- Generator: Sketch 50.2 (55047) - http://www.bohemiancoding.com/sketch -->
    <title>Artboard 3 Copy</title>
    <desc>Created with Sketch.</desc>
    <defs></defs>
    <g id="Artboard-3-Copy" stroke="none" stroke-width="1" fill="none" fill-rule="evenodd">
        <g id="sun" transform="translate(0.000000, 1.000000)" fill-rule="nonzero">
            <g id="Group">
                <g>
                    <polygon id="Shape" fill="#F8B000" points="14.6200106 0.0971808511 15.7942021 1.44105319 17.1886702 0.32856383 18.1034043 1.86062766 19.6746489 1.01469149 20.3018511 2.6852766 21.9986596 2.13365957 22.154766 3.88939362 23.7611809 3.64968085 23.7611809 5.43410638 25.7051064 5.51370213 25.4675532 7.26943617 27.2479681 7.66618085 26.6408191 9.33676596 28.2916596 10.0377021 27.3815532 11.569766 28.8732021 12.5523723 27.7002447 13.8959362 28.9913617 15.1287447 27.5962766 16.2415426 28.6455213 17.6847553 27.0736596 18.5300745 27.8483298 20.1377234 26.1512128 20.6890319 26.6263191 22.4086702 24.8582447 22.6480745 25.0180532 24.4250957 23.2357872 24.344883 23.0759787 26.1219043 21.3359787 25.7248511 20.8617979 27.4451064 19.2211383 26.7432447 18.4470851 28.3512021 16.9582128 27.3676702 15.9095851 28.8118085 14.6197021 27.5780745 13.3304362 28.8118085 12.2818085 27.3676702 10.7926277 28.3512021 10.0185745 26.7432447 8.3782234 27.4451064 7.90311702 25.7248511 6.16404255 26.1219043 6.00423404 24.344883 4.22165957 24.4250957 4.3817766 22.6480745 2.61370213 22.4086702 3.0885 20.6890319 1.39169149 20.1377234 2.16605319 18.5300745 0.5945 17.6847553 1.64343617 16.2415426 0.248351064 15.1287447 1.53854255 13.8959362 0.364042553 12.5523723 1.85353191 11.569766 0.93787234 10.0377021 2.57914894 9.33676596 1.9516383 7.66618085 3.69102128 7.26974468 3.26558511 5.51370213 4.94203191 5.43410638 4.94203191 3.64968085 6.81654255 3.88939362 7.18829787 2.13365957 8.9116383 2.6852766 9.55179787 1.01469149 11.1295213 1.86062766 12.0479574 0.32856383 13.4442766 1.44105319"></polygon>
                    <circle id="Oval" fill="#F6D100" cx="14.6200106" cy="14.4833404" r="10.6349787"></circle>
                </g>
                <polyline id="Shape" fill="#EAA200" points="14.6200106 0.0971808511 15.7942021 1.44105319 17.1886702 0.32856383 18.1034043 1.86062766 19.6746489 1.01469149 20.3018511 2.6852766 21.9986596 2.13365957 22.154766 3.88939362 23.7611809 3.64968085 23.7611809 5.43410638 25.7051064 5.51370213 25.4675532 7.26943617 27.2479681 7.66618085 26.6408191 9.33676596 28.2916596 10.0377021 27.3815532 11.569766 28.8732021 12.5523723 27.7002447 13.8959362 28.9913617 15.1287447 27.5962766 16.2415426 28.6455213 17.6847553 27.0736596 18.5300745 27.8483298 20.1377234 26.1512128 20.6890319 26.6263191 22.4086702 24.8582447 22.6480745 25.0180532 24.4250957 23.2357872 24.344883 23.0759787 26.1219043 21.3359787 25.7248511 20.8617979 27.4451064 19.2211383 26.7432447 18.4470851 28.3512021 16.9582128 27.3676702 15.9095851 28.8118085 14.6197021 27.5780745"></polyline>
                <path d="M14.6200106,3.84867021 C20.4931277,3.84867021 25.2549894,8.6102234 25.2549894,14.4833404 C25.2549894,20.356766 20.4931277,25.1183191 14.6200106,25.1183191" id="Shape" fill="#EAC300"></path>
            </g>
        </g>
    </g>
</svg>