<?xml version="1.0" encoding="UTF-8"?>
<svg width="36px" height="32px" viewBox="0 0 36 32" version="1.1" xmlns="http://www.w3.org/2000/svg" xmlns:xlink="http://www.w3.org/1999/xlink">
    <!-- Generator: Sketch 50.2 (55047) - http://www.bohemiancoding.com/sketch -->
    <title>Artboard 3 Copy</title>
    <desc>Created with Sketch.</desc>
    <defs></defs>
    <g id="Artboard-3-Copy" stroke="none" stroke-width="1" fill="none" fill-rule="evenodd">
        <g id="Group-3" transform="translate(0.000000, 2.000000)" fill-rule="nonzero">
            <g id="Group">
                <g>
                    <polygon id="Shape" fill="#F8B000" points="12.1196923 0.152674419 13.096 1.25072093 14.256 0.341627907 15.0169231 1.59355814 16.3233846 0.902139535 16.8446154 2.26744186 18.256 1.81667442 18.4766154 3.2512093 19.9033846 3.05530233 19.9033846 4.5134186 21.4292308 4.5784186 21.1861538 6.01325581 22.644 6.33734884 22.1276923 7.70234884 23.4950769 8.27525581 22.7353846 9.52688372 23.9744615 10.3298605 22.9981538 11.4276047 24.0710769 12.4349535 22.9110769 13.3440465 23.7833846 14.5234186 22.4763077 15.2142326 23.1206154 16.5278372 21.7092308 16.9783023 22.1043077 18.3835116 20.6338462 18.5791163 20.7670769 20.031186 19.2846154 19.9655814 19.1516923 21.4176512 17.7052308 21.0932558 17.3107692 22.4987674 15.9461538 21.9252558 15.3024615 23.2391628 14.064 22.4355814 13.192 23.6155581 12.1196923 22.6076047 11.0473846 23.6155581 10.1750769 22.4355814 8.93692308 23.2391628 8.29323077 21.9252558 6.92892308 22.4987674 6.53415385 21.0932558 5.08769231 21.4176512 4.95476923 19.9655814 3.47230769 20.031186 3.60553846 18.5791163 2.13476923 18.3835116 2.53015385 16.9783023 1.11876923 16.5278372 1.76276923 15.2142326 0.456 14.5234186 1.32830769 13.3440465 0.168 12.4349535 1.24061538 11.4276047 0.264307692 10.3298605 1.50276923 9.52688372 0.741538462 8.27525581 2.10615385 7.70234884 1.58430769 6.33734884 3.03138462 6.01325581 2.74707692 4.5784186 4.21107692 4.5134186 4.21107692 3.05530233 5.7 3.2512093 5.97415385 1.81667442 7.39015385 2.26744186 7.91353846 0.902139535 9.22153846 1.59355814 9.98276923 0.341627907 11.1433846 1.25072093"></polygon>
                    <ellipse id="Oval" fill="#F6D100" cx="12.1196923" cy="11.9076977" rx="8.844" ry="8.68974419"></ellipse>
                </g>
                <polyline id="Shape" fill="#EAA200" points="12.1196923 0.152674419 13.096 1.25072093 14.256 0.341627907 15.0169231 1.59355814 16.3233846 0.902139535 16.8446154 2.26744186 18.256 1.81667442 18.4766154 3.2512093 19.9033846 3.05530233 19.9033846 4.5134186 21.4292308 4.5784186 21.1861538 6.01325581 22.644 6.33734884 22.1276923 7.70234884 23.4950769 8.27525581 22.7353846 9.52688372 23.9744615 10.3298605 22.9981538 11.4276047 24.0710769 12.4349535 22.9110769 13.3440465 23.7833846 14.5234186 22.4763077 15.2142326 23.1206154 16.5278372 21.7092308 16.9783023 22.1043077 18.3835116 20.6338462 18.5791163 20.7670769 20.031186 19.2846154 19.9655814 19.1516923 21.4176512 17.7052308 21.0932558 17.3107692 22.4987674 15.9461538 21.9252558 15.3024615 23.2391628 14.064 22.4355814 13.192 23.6155581 12.1196923 22.6076047"></polyline>
                <path d="M12.1196923,3.21795349 C17.0036923,3.21795349 20.9636923,7.1085814 20.9636923,11.9076977 C20.9636923,16.706814 17.004,20.5974419 12.1196923,20.5974419" id="Shape" fill="#EAC300"></path>
            </g>
            <g id="Group" transform="translate(10.461538, 11.790698)">
                <path d="M22.8670163,6.41776335 C22.4832767,2.81186354 19.3639373,0 15.5719249,0 C14.8659866,0 14.1842846,0.0993706213 13.5384615,0.281395311 C16.3593633,1.07821768 18.4805046,3.48540133 18.7924861,6.41776335 C20.3557199,7.01352273 21.4639313,8.43512627 21.4639313,10.1736478 C21.4639313,12.4371155 19.5861023,14.2093023 17.2696458,14.2093023 C19.5889536,14.2093023 21.2919019,14.2093023 21.3439384,14.2093023 C23.6603949,14.2093023 25.5384615,12.4371155 25.5384615,10.1736478 C25.5384615,8.43512627 24.4300125,7.01329056 22.8670163,6.41776335 Z" id="Shape" fill="#DFDDDF"></path>
                <path d="M21.5384615,10.1838788 C21.5384615,8.44996426 20.4349928,7.00063582 18.8784488,6.40645516 C18.5678024,3.48209521 16.4557386,1.09703643 13.6469089,0.302325581 C12.3470681,0.668883645 11.1953344,1.38602219 10.3024332,2.33333049 C9.76560414,2.12840069 9.1826395,2.01887323 8.5717569,2.01887323 C6.11639689,2.01887323 4.09565785,3.83730688 3.83327644,6.17188578 C1.6873798,6.34300796 0,8.03894685 0,10.1831842 C0,12.4406539 1.86979285,14.2093023 4.17657258,14.2093023 C4.29037372,14.2093023 12.3002227,14.2093023 17.361889,14.2093023 C19.6686687,14.2088392 21.5384615,12.4413486 21.5384615,10.1838788 Z" id="Shape" fill="#EDEDED"></path>
            </g>
        </g>
    </g>
</svg>