<?xml version="1.0" encoding="UTF-8"?>
<svg width="24px" height="24px" viewBox="0 0 24 24" version="1.1" xmlns="http://www.w3.org/2000/svg" xmlns:xlink="http://www.w3.org/1999/xlink">
    <!-- Generator: Sketch 50.2 (55047) - http://www.bohemiancoding.com/sketch -->
    <title>Artboard Copy</title>
    <desc>Created with Sketch.</desc>
    <defs></defs>
    <g id="Artboard-Copy" stroke="none" stroke-width="1" fill="none" fill-rule="evenodd" fill-opacity="0.498443161">
        <path d="M19,5 L23,5 L23,7 L19,7 L19,11 L17,11 L17,7 L13,7 L13,5 L17,5 L17,1 L19,1 L19,5 Z M12.2302541,-6.66133815e-16 L12.2302541,1 L3,1 C1.8954305,1 1,1.8954305 1,3 L1,21 C1,22.1045695 1.8954305,23 3,23 L21,23 C22.1045695,23 23,22.1045695 23,21 L23,12.4929557 L24,12.4929557 L24,22 C24,23.1045695 23.1045695,24 22,24 L2,24 C0.8954305,24 1.3527075e-16,23.1045695 0,22 L0,2 C-1.3527075e-16,0.8954305 0.8954305,2.02906125e-16 2,0 L12.2302541,0 Z M5,11 L7,11 L7,21 L5,21 L5,11 Z M10,8 L12,8 L12,21 L10,21 L10,8 Z M15,14 L17,14 L17,21 L15,21 L15,14 Z" id="Combined-Shape" fill="#9B9B9B"></path>
    </g>
</svg>