<?xml version="1.0" encoding="UTF-8"?>
<svg width="32px" height="32px" viewBox="0 0 32 32" version="1.1" xmlns="http://www.w3.org/2000/svg" xmlns:xlink="http://www.w3.org/1999/xlink">
    <!-- Generator: Sketch 50.2 (55047) - http://www.bohemiancoding.com/sketch -->
    <title>Artboard 3 Copy</title>
    <desc>Created with Sketch.</desc>
    <defs></defs>
    <g id="Artboard-3-Copy" stroke="none" stroke-width="1" fill="none" fill-rule="evenodd">
        <g id="storm" transform="translate(0.000000, -1.000000)" fill-rule="nonzero">
            <g id="Group">
                <path d="M27.765466,8.25122222 C27.3049806,3.75619444 23.5624078,0.251166667 19.012932,0.251166667 C18.166301,0.251166667 17.3482621,0.375222222 16.5735631,0.601944444 C19.9576796,1.59530556 22.5023883,4.59555556 22.8767961,8.25091667 C24.7521456,8.99341667 26.081835,10.7656389 26.081835,12.9326389 C26.081835,15.7538333 23.828767,17.963 21.0499029,17.963 C23.8317767,17.963 25.8753689,17.963 25.9379709,17.963 C28.716835,17.963 30.9699029,15.7541389 30.9699029,12.9326389 C30.9699029,10.76625 29.6402136,8.99372222 27.765466,8.25122222 Z" id="Shape" fill="#DFDDDF"></path>
                <path d="M26.081835,12.93325 C26.081835,10.76625 24.7521456,8.95461111 22.8767961,8.21211111 C22.5023883,4.55705556 19.9576796,1.57636111 16.5735631,0.582694444 C15.0076117,1.04102778 13.6201359,1.93752778 12.5438641,3.12155556 C11.8973786,2.8655 11.1946117,2.72830556 10.4587379,2.72830556 C7.50019417,2.72830556 5.06564078,5.00102778 4.74901942,7.91847222 C2.16398058,8.13236111 0.13092233,10.252 0.13092233,12.9320278 C0.13092233,15.7529167 2.38368932,17.9636111 5.16285437,17.9636111 C5.30009709,17.9636111 14.9513301,17.9636111 21.0499029,17.9636111 C23.828767,17.9633056 26.081835,15.7544444 26.081835,12.93325 Z" id="Shape" fill="#EDEDED"></path>
            </g>
            <g id="Group" transform="translate(9.631068, 19.555556)">
                <polygon id="Shape" fill="#F6D100" points="2.59828155 13.1663889 11.5798544 5.78477778 9.58381553 5.78477778 7.64345631 5.78477778 10.2492621 0.284777778 8.2532233 0.284777778 3.26342718 0.284777778 0.269669903 8.84033333 1.93283495 8.84033333 3.92887379 8.84033333 3.26613592 10.9951111"></polygon>
                <g transform="translate(2.407767, 0.000000)" fill="#EAC300" id="Shape">
                    <polygon points="9.17208738 5.78477778 7.17604854 5.78477778 0.858368932 10.9630278 0.190514563 13.1902222"></polygon>
                    <polygon points="5.23568932 5.78477778 7.84149515 0.284777778 5.84545631 0.284777778 3.23995146 5.78477778"></polygon>
                </g>
            </g>
        </g>
    </g>
</svg>