<?xml version="1.0" encoding="UTF-8"?>
<svg width="245px" height="32px" viewBox="0 0 245 32" version="1.1" xmlns="http://www.w3.org/2000/svg" xmlns:xlink="http://www.w3.org/1999/xlink">
    <!-- Generator: Sketch 50.2 (55047) - http://www.bohemiancoding.com/sketch -->
    <title>Artboard 3</title>
    <desc>Created with Sketch.</desc>
    <defs></defs>
    <g id="Artboard-3" stroke="none" stroke-width="1" fill="none" fill-rule="evenodd">
        <g id="sun" transform="translate(216.000000, 1.000000)" fill-rule="nonzero">
            <g id="Group">
                <g>
                    <polygon id="Shape" fill="#F8B000" points="14.4799722 0.09625 15.6429167 1.42725 17.0240278 0.325416667 17.93 1.84280556 19.4861944 1.00497222 20.1073889 2.65955556 21.7879444 2.11322222 21.9425556 3.85213889 23.5335833 3.61472222 23.5335833 5.38205556 25.4588889 5.46088889 25.2236111 7.19980556 26.9869722 7.59275 26.3856389 9.24733333 28.0206667 9.94155556 27.1192778 11.4589444 28.5966389 12.4321389 27.4349167 13.7628333 28.7136667 14.9838333 27.3319444 16.0859722 28.3711389 17.5153611 26.8143333 18.3525833 27.5815833 19.9448333 25.9007222 20.4908611 26.3712778 22.1940278 24.6201389 22.4311389 24.7784167 24.1911389 23.0132222 24.1116944 22.8549444 25.8716944 21.1316111 25.4784444 20.6619722 27.1822222 19.0370278 26.4870833 18.2703889 28.0796389 16.7957778 27.1055278 15.7571944 28.5358333 14.4796667 27.3139167 13.20275 28.5358333 12.1641667 27.1055278 10.68925 28.0796389 9.92261111 26.4870833 8.29797222 27.1822222 7.82741667 25.4784444 6.105 25.8716944 5.94672222 24.1116944 4.18122222 24.1911389 4.33980556 22.4311389 2.58866667 22.1940278 3.05891667 20.4908611 1.37836111 19.9448333 2.14530556 18.3525833 0.588805556 17.5153611 1.62769444 16.0859722 0.245972222 14.9838333 1.52380556 13.7628333 0.360555556 12.4321389 1.83577778 11.4589444 0.928888889 9.94155556 2.55444444 9.24733333 1.93294444 7.59275 3.65566667 7.20011111 3.23430556 5.46088889 4.89469444 5.38205556 4.89469444 3.61472222 6.75125 3.85213889 7.11944444 2.11322222 8.82627778 2.65955556 9.46030556 1.00497222 11.0229167 1.84280556 11.9325556 0.325416667 13.3155 1.42725"></polygon>
                    <circle id="Oval" fill="#F6D100" cx="14.4799722" cy="14.3446111" r="10.5331111"></circle>
                </g>
                <polyline id="Shape" fill="#EAA200" points="14.4799722 0.09625 15.6429167 1.42725 17.0240278 0.325416667 17.93 1.84280556 19.4861944 1.00497222 20.1073889 2.65955556 21.7879444 2.11322222 21.9425556 3.85213889 23.5335833 3.61472222 23.5335833 5.38205556 25.4588889 5.46088889 25.2236111 7.19980556 26.9869722 7.59275 26.3856389 9.24733333 28.0206667 9.94155556 27.1192778 11.4589444 28.5966389 12.4321389 27.4349167 13.7628333 28.7136667 14.9838333 27.3319444 16.0859722 28.3711389 17.5153611 26.8143333 18.3525833 27.5815833 19.9448333 25.9007222 20.4908611 26.3712778 22.1940278 24.6201389 22.4311389 24.7784167 24.1911389 23.0132222 24.1116944 22.8549444 25.8716944 21.1316111 25.4784444 20.6619722 27.1822222 19.0370278 26.4870833 18.2703889 28.0796389 16.7957778 27.1055278 15.7571944 28.5358333 14.4796667 27.3139167"></polyline>
                <path d="M14.4799722,3.81180556 C20.2968333,3.81180556 25.0130833,8.52775 25.0130833,14.3446111 C25.0130833,20.1617778 20.2968333,24.8777222 14.4799722,24.8777222" id="Shape" fill="#EAC300"></path>
            </g>
        </g>
        <g id="Group-3" transform="translate(162.000000, 2.000000)" fill-rule="nonzero">
            <g id="Group">
                <g>
                    <polygon id="Shape" fill="#F8B000" points="12.0355278 0.154305556 13.0050556 1.26408333 14.157 0.345277778 14.9126389 1.61058333 16.2100278 0.911777778 16.7276389 2.29166667 18.1292222 1.83608333 18.3483056 3.28594444 19.7651667 3.08794444 19.7651667 4.56163889 21.2804167 4.62733333 21.0390278 6.0775 22.48675 6.40505556 21.9740278 7.78463889 23.3319167 8.36366667 22.5775 9.62866667 23.8079722 10.4402222 22.8384444 11.5496944 23.9039167 12.5678056 22.7519722 13.4866111 23.6182222 14.6785833 22.3202222 15.3767778 22.9600556 16.7044167 21.5584722 17.1596944 21.9508056 18.5799167 20.4905556 18.7776111 20.6228611 20.2451944 19.1506944 20.1788889 19.0186944 21.6464722 17.5822778 21.3186111 17.1905556 22.7391389 15.8354167 22.1595 15.1961944 23.4874444 13.9663333 22.6752778 13.1003889 23.8678611 12.0355278 22.8491389 10.9706667 23.8678611 10.1044167 22.6752778 8.87486111 23.4874444 8.23563889 22.1595 6.88080556 22.7391389 6.48877778 21.3186111 5.05236111 21.6464722 4.92036111 20.1788889 3.44819444 20.2451944 3.5805 18.7776111 2.11994444 18.5799167 2.51258333 17.1596944 1.111 16.7044167 1.75052778 15.3767778 0.452833333 14.6785833 1.31908333 13.4866111 0.166833333 12.5678056 1.232 11.5496944 0.262472222 10.4402222 1.49233333 9.62866667 0.736388889 8.36366667 2.09152778 7.78463889 1.57330556 6.40505556 3.01033333 6.0775 2.728 4.62733333 4.18183333 4.56163889 4.18183333 3.08794444 5.66041667 3.28594444 5.93266667 1.83608333 7.33883333 2.29166667 7.85858333 0.911777778 9.1575 1.61058333 9.91344444 0.345277778 11.066 1.26408333"></polygon>
                    <circle id="Oval" fill="#F6D100" cx="12.0355278" cy="12.0349167" r="8.78258333"></circle>
                </g>
                <polyline id="Shape" fill="#EAA200" points="12.0355278 0.154305556 13.0050556 1.26408333 14.157 0.345277778 14.9126389 1.61058333 16.2100278 0.911777778 16.7276389 2.29166667 18.1292222 1.83608333 18.3483056 3.28594444 19.7651667 3.08794444 19.7651667 4.56163889 21.2804167 4.62733333 21.0390278 6.0775 22.48675 6.40505556 21.9740278 7.78463889 23.3319167 8.36366667 22.5775 9.62866667 23.8079722 10.4402222 22.8384444 11.5496944 23.9039167 12.5678056 22.7519722 13.4866111 23.6182222 14.6785833 22.3202222 15.3767778 22.9600556 16.7044167 21.5584722 17.1596944 21.9508056 18.5799167 20.4905556 18.7776111 20.6228611 20.2451944 19.1506944 20.1788889 19.0186944 21.6464722 17.5822778 21.3186111 17.1905556 22.7391389 15.8354167 22.1595 15.1961944 23.4874444 13.9663333 22.6752778 13.1003889 23.8678611 12.0355278 22.8491389"></polyline>
                <path d="M12.0355278,3.25233333 C16.8856111,3.25233333 20.8181111,7.18452778 20.8181111,12.0349167 C20.8181111,16.8853056 16.8859167,20.8175 12.0355278,20.8175" id="Shape" fill="#EAC300"></path>
            </g>
            <g id="Group" transform="translate(10.388889, 11.916667)">
                <path d="M22.7082176,6.4863292 C22.3271428,2.84190482 19.2294655,0 15.4637865,0 C14.7627506,0 14.0857826,0.100432273 13.4444444,0.284401671 C16.2457566,1.0897371 18.3521677,3.52263852 18.6619827,6.4863292 C20.2143608,7.08845353 21.3148762,8.52524514 21.3148762,10.2823406 C21.3148762,12.5699907 19.4500877,14.3611111 17.1497177,14.3611111 C19.4529192,14.3611111 21.1440415,14.3611111 21.1957166,14.3611111 C23.4960866,14.3611111 25.3611111,12.5699907 25.3611111,10.2823406 C25.3611111,8.52524514 24.2603597,7.08821887 22.7082176,6.4863292 Z" id="Shape" fill="#DFDDDF"></path>
                <path d="M21.3888889,10.292681 C21.3888889,8.54024166 20.2930831,7.07542894 18.7473484,6.47490019 C18.4388594,3.51929709 16.3414626,1.10875691 13.5521387,0.305555556 C12.2613246,0.676029838 11.117589,1.40083012 10.2308885,2.35825924 C9.69778744,2.15114001 9.11887117,2.04044239 8.51223081,2.04044239 C6.07392192,2.04044239 4.06721578,3.87830375 3.80665646,6.23782473 C1.67566189,6.41077514 0,8.12483303 0,10.2919789 C0,12.5735668 1.85680817,14.3611111 4.14756861,14.3611111 C4.26057945,14.3611111 12.2148045,14.3611111 17.2413203,14.3611111 C19.5320807,14.360643 21.3888889,12.5742689 21.3888889,10.292681 Z" id="Shape" fill="#EDEDED"></path>
            </g>
        </g>
        <g id="Group-4" transform="translate(110.000000, 4.000000)" fill-rule="nonzero">
            <g id="Group-Copy" transform="translate(7.333333, 0.000000)">
                <g id="Group">
                    <polygon id="Shape" fill="#F8B000" points="11.5784824 0.148445851 12.5111927 1.21608017 13.6193924 0.332165963 14.3463361 1.54942194 15.5944571 0.877153305 16.0924121 2.20464135 17.4407707 1.76635865 17.6515345 3.16116174 19.0145907 2.97068073 19.0145907 4.3884121 20.4722996 4.45161181 20.2400774 5.84670886 21.6328228 6.1618256 21.139571 7.48901969 22.4458945 8.04605907 21.7201266 9.2630211 22.903872 10.0437581 21.9711617 11.1110985 22.996173 12.0905471 21.8879733 12.9744613 22.7213277 14.1211688 21.4726188 14.7928495 22.0881547 16.0700717 20.7397961 16.5080605 21.1172307 17.8743502 19.7124332 18.0645373 19.8397145 19.4763896 18.4234529 19.412602 18.2964655 20.8244543 16.9145963 20.5090436 16.5377496 21.8756273 15.2340717 21.318 14.6191238 22.5955162 13.4359662 21.8141913 12.6029058 22.9614866 11.5784824 21.9814501 10.5540591 22.9614866 9.72070464 21.8141913 8.53784107 22.5955162 7.92289311 21.318 6.61950914 21.8756273 6.2423685 20.5090436 4.8604993 20.8244543 4.73351195 19.412602 3.31725035 19.4763896 3.44453165 18.0645373 2.03944023 17.8743502 2.41716878 16.5080605 1.06881013 16.0700717 1.68405204 14.7928495 0.435637131 14.1211688 1.26899156 12.9744613 0.16049789 12.0905471 1.18521519 11.1110985 0.252504923 10.0437581 1.43566245 9.2630211 0.708424754 8.04605907 2.01210267 7.48901969 1.51355977 6.1618256 2.89601688 5.84670886 2.62440506 4.45161181 4.02302954 4.3884121 4.02302954 2.97068073 5.44546414 3.16116174 5.70737553 1.76635865 7.06014346 2.20464135 7.56015612 0.877153305 8.80974684 1.54942194 9.53698453 0.332165963 10.6457722 1.21608017"></polygon>
                    <circle id="Oval" fill="#F6D100" cx="11.5784824" cy="11.5778945" r="8.44906751"></circle>
                </g>
                <polyline id="Shape" fill="#EAA200" points="11.6111111 0 12.5346611 1.07248394 13.631977 0.184554642 14.3517813 1.40733988 15.5876442 0.732017533 16.0807087 2.06553555 17.4158249 1.625262 17.6245187 3.02640084 18.9741882 2.83505459 18.9741882 4.25922585 20.4175806 4.32271265 20.1876391 5.72414678 21.5667061 6.0406949 21.0782987 7.37391764 22.3717926 7.93348731 21.6531525 9.15597726 22.8252722 9.94026067 21.9017222 11.0124493 22.9166667 11.996347 21.8193508 12.8842763 22.6445207 14.0361926 21.4080756 14.7109243 22.0175662 15.9939482 20.68245 16.4339265 21.0561777 17.8064224 19.665177 17.9974734 19.7912083 19.4157389 18.388856 19.3516616 18.2631158 20.7699271 16.8948182 20.4530837 16.5216726 21.8258749 15.2307983 21.2657147 14.6218898 22.5490338 13.4503523 21.7641598 12.6254734 22.9166667 11.6111111 21.9321784"></polyline>
                <path d="M11.6111111,3.05555556 C16.3358209,3.05555556 20.1666667,6.81770102 20.1666667,11.4583333 C20.1666667,16.0989656 16.3361186,19.8611111 11.6111111,19.8611111" id="Shape" fill="#EAC300"></path>
            </g>
            <g id="cloud-1" transform="translate(0.000000, 5.805556)">
                <g id="Group">
                    <path d="M20.6070323,6.08745108 C20.2645597,2.80698839 17.48177,0.249433665 14.0981931,0.249433665 C13.4774945,0.249433665 12.8777691,0.338309287 12.3088397,0.499131841 C11.1197427,0.825802653 10.088077,1.47940879 9.28791211,2.34383002 C8.80685747,2.15708541 8.28491849,2.05683582 7.73722769,2.05683582 C5.53717259,2.05683582 3.72684608,3.71558292 3.49162842,5.84436567 C1.56900273,6.00042703 0.057609745,7.56897595 0.057609745,9.52503317 C0.057609745,11.5837206 1.73254007,13.2189262 3.79932286,13.2189262 C3.90179918,13.2189262 11.0783274,13.2189262 15.6133028,13.2189262 C17.6822095,13.2189262 19.2018324,13.2189262 19.2482919,13.2189262 C21.3148092,13.2189262 22.990005,11.5847786 22.990005,9.52556219 C22.990005,7.94405224 22.001082,6.62943367 20.6070323,6.08745108 Z" id="Shape" fill="#F7F4F4"></path>
                    <path d="M20.6070323,6.08745108 C20.2645597,2.80698839 17.48177,0.249433665 14.0981931,0.249433665 C13.4687336,0.249433665 12.8605128,0.340160862 12.2841498,0.5054801 C14.8006603,1.23050415 16.6932864,3.42038889 16.9712468,6.08771559 C18.3660929,6.62969818 19.3547505,7.92289138 19.3547505,9.50413682 C19.3547505,11.5633532 17.6792892,13.1755464 15.6130373,13.1755464 C17.681944,13.1755464 19.2015669,13.1755464 19.2480264,13.1755464 C21.3145437,13.1755464 22.9897395,11.5633532 22.9897395,9.50413682 C22.990005,7.92236235 22.001082,6.62943367 20.6070323,6.08745108 Z" id="Shape" fill="#000000" opacity="0.03"></path>
                    <path d="M29.5296403,9.57449668 C29.1380533,5.82584992 25.9586325,2.90353483 22.0926735,2.90353483 C21.3830383,2.90353483 20.6975619,3.00484245 20.0473948,3.18894196 C18.6894508,3.56190216 17.5101767,4.30940962 16.5961198,5.29656385 C16.0468361,5.08310365 15.4495,4.96883499 14.8242883,4.96883499 C12.3101671,4.96883499 10.2417914,6.86405473 9.97312295,9.29649585 C7.77651913,9.47504063 6.04902322,11.263927 6.04902322,13.4985141 C6.04902322,15.851073 7.96341894,17.7153449 10.324622,17.7153449 C10.4411689,17.7153449 18.6416639,17.7153449 23.8236207,17.7153449 C26.1874786,17.7153449 27.9237354,17.7153449 27.9770974,17.7153449 C30.338566,17.7153449 32.2526963,15.8518665 32.2526963,13.4995721 C32.2526963,11.6924345 31.1230674,10.1937164 29.5296403,9.57449668 Z" id="Shape" fill="#EDEDED"></path>
                    <path d="M29.5296403,9.57449668 C29.1380533,5.82584992 25.9586325,2.90353483 22.0926735,2.90353483 C21.3732154,2.90353483 20.6781817,3.00695854 20.0195191,3.19581924 C22.8949622,4.02400249 25.0573188,6.52600995 25.375898,9.57423217 C26.9695906,10.1934519 28.098954,11.6710091 28.098954,13.4781468 C28.098954,15.8307056 26.1845583,17.6727587 23.8236207,17.6727587 C26.1874786,17.6727587 27.9237354,17.6727587 27.9770974,17.6727587 C30.338566,17.6727587 32.2526963,15.8304411 32.2526963,13.4781468 C32.2526963,11.6712736 31.1230674,10.1937164 29.5296403,9.57449668 Z" id="Shape" fill="#000000" opacity="0.03"></path>
                </g>
            </g>
        </g>
        <g id="Group-2" transform="translate(50.000000, 0.000000)" fill-rule="nonzero">
            <g id="cloud-1-copy">
                <g id="Group">
                    <path d="M23.7175278,7.03205556 C23.3233611,3.24255556 20.1205278,0.288138889 16.2262222,0.288138889 C15.5118333,0.288138889 14.8215833,0.390805556 14.1667778,0.576583333 C12.7981944,0.953944444 11.6108056,1.70897222 10.6898611,2.70752778 C10.1361944,2.49180556 9.53547222,2.376 8.90511111,2.376 C6.37297222,2.376 4.28938889,4.29213889 4.01866667,6.75125 C1.80583333,6.93152778 0.0663055556,8.74347222 0.0663055556,11.0030556 C0.0663055556,13.3811944 1.99405556,15.2701389 4.37280556,15.2701389 C4.49075,15.2701389 12.7505278,15.2701389 17.9700278,15.2701389 C20.3512222,15.2701389 22.1002222,15.2701389 22.1536944,15.2701389 C24.5321389,15.2701389 26.4601944,13.3824167 26.4601944,11.0036667 C26.4601944,9.17675 25.322,7.65813889 23.7175278,7.03205556 Z" id="Shape" fill="#F7F4F4"></path>
                    <path d="M23.7175278,7.03205556 C23.3233611,3.24255556 20.1205278,0.288138889 16.2262222,0.288138889 C15.50175,0.288138889 14.8017222,0.392944444 14.1383611,0.583916667 C17.0347222,1.42144444 19.2130278,3.95113889 19.5329444,7.03236111 C21.1383333,7.65844444 22.2762222,9.15230556 22.2762222,10.9789167 C22.2762222,13.3576667 20.3478611,15.2200278 17.9697222,15.2200278 C20.3509167,15.2200278 22.0999167,15.2200278 22.1533889,15.2200278 C24.5318333,15.2200278 26.4598889,13.3576667 26.4598889,10.9789167 C26.4601944,9.15169444 25.322,7.65813889 23.7175278,7.03205556 Z" id="Shape" fill="#000000" opacity="0.03"></path>
                    <path d="M33.9869444,11.0601944 C33.53625,6.72986111 29.8769167,3.35408333 25.4274167,3.35408333 C24.6106667,3.35408333 23.8217222,3.47111111 23.0734167,3.68377778 C21.5105,4.11461111 20.1532222,4.97811111 19.1011944,6.11844444 C18.469,5.87186111 17.7815,5.73986111 17.0619167,5.73986111 C14.1683056,5.73986111 11.7877222,7.92916667 11.4785,10.7390556 C8.95033333,10.9453056 6.96208333,13.0117778 6.96208333,15.5931111 C6.96208333,18.3107222 9.16544444,20.4642778 11.8830556,20.4642778 C12.0171944,20.4642778 21.4555,20.4642778 27.4196389,20.4642778 C30.1403056,20.4642778 32.1386389,20.4642778 32.2000556,20.4642778 C34.9179722,20.4642778 37.1210278,18.3116389 37.1210278,15.5943333 C37.1210278,13.5067778 35.8208889,11.7755 33.9869444,11.0601944 Z" id="Shape" fill="#EDEDED"></path>
                    <path d="M33.9869444,11.0601944 C33.53625,6.72986111 29.8769167,3.35408333 25.4274167,3.35408333 C24.5993611,3.35408333 23.7994167,3.47355556 23.0413333,3.69172222 C26.3508056,4.64841667 28.8395556,7.53866667 29.2062222,11.0598889 C31.0404722,11.7751944 32.3403056,13.4820278 32.3403056,15.5695833 C32.3403056,18.2871944 30.1369444,20.4150833 27.4196389,20.4150833 C30.1403056,20.4150833 32.1386389,20.4150833 32.2000556,20.4150833 C34.9179722,20.4150833 37.1210278,18.2868889 37.1210278,15.5695833 C37.1210278,13.4823333 35.8208889,11.7755 33.9869444,11.0601944 Z" id="Shape" fill="#000000" opacity="0.03"></path>
                </g>
            </g>
            <g id="rain" transform="translate(6.111111, 21.694444)">
                <g id="Group">
                    <g id="Shape">
                        <path d="M26.5937222,2.90125 C26.5937222,3.83319444 25.8380833,4.58822222 24.90675,4.58822222 C23.9748056,4.58822222 23.2194722,3.83288889 23.2194722,2.90125 C23.2194722,1.96930556 24.90675,0.267055556 24.90675,0.267055556 C24.90675,0.267055556 26.5937222,1.96930556 26.5937222,2.90125" fill="#F7F4F4"></path>
                        <path d="M24.90675,0.267055556 L24.90675,4.58852778 C25.8383889,4.58852778 26.5937222,3.83319444 26.5937222,2.90155556 C26.5937222,1.96930556 24.90675,0.267055556 24.90675,0.267055556" fill="#E5E5E5"></path>
                        <path d="M18.9322222,2.90125 C18.9322222,3.83319444 18.1765833,4.58822222 17.2449444,4.58822222 C16.313,4.58822222 15.5579722,3.83288889 15.5579722,2.90125 C15.5579722,1.96930556 17.2449444,0.267055556 17.2449444,0.267055556 C17.2449444,0.267055556 18.9322222,1.96930556 18.9322222,2.90125" fill="#F7F4F4"></path>
                        <path d="M17.2449444,0.267055556 L17.2449444,4.58852778 C18.1765833,4.58852778 18.9322222,3.83319444 18.9322222,2.90155556 C18.9322222,1.96930556 17.2449444,0.267055556 17.2449444,0.267055556" fill="#E5E5E5"></path>
                        <path d="M11.2707222,2.90125 C11.2707222,3.83319444 10.5150833,4.58822222 9.58375,4.58822222 C8.65180556,4.58822222 7.89677778,3.83288889 7.89677778,2.90125 C7.89677778,1.96930556 9.58375,0.267055556 9.58375,0.267055556 C9.58375,0.267055556 11.2707222,1.96930556 11.2707222,2.90125" fill="#F7F4F4"></path>
                        <path d="M9.58344444,0.267055556 L9.58344444,4.58852778 C10.5150833,4.58852778 11.2704167,3.83319444 11.2704167,2.90155556 C11.2707222,1.96930556 9.58344444,0.267055556 9.58344444,0.267055556" fill="#E5E5E5"></path>
                        <path d="M22.7629722,8.07186111 C22.7629722,9.00380556 22.0073333,9.75883333 21.076,9.75883333 C20.1440556,9.75883333 19.3887222,9.0035 19.3887222,8.07186111 C19.3887222,7.13991667 21.076,5.43766667 21.076,5.43766667 C21.076,5.43766667 22.7629722,7.13991667 22.7629722,8.07186111" fill="#F7F4F4"></path>
                        <path d="M21.076,5.43766667 L21.076,9.75913889 C22.0076389,9.75913889 22.7629722,9.00380556 22.7629722,8.07216667 C22.7629722,7.13991667 21.076,5.43766667 21.076,5.43766667" fill="#E5E5E5"></path>
                        <path d="M15.1014722,8.07186111 C15.1014722,9.00380556 14.3458333,9.75883333 13.4145,9.75883333 C12.4825556,9.75883333 11.7275278,9.0035 11.7275278,8.07186111 C11.7275278,7.13991667 13.4145,5.43766667 13.4145,5.43766667 C13.4145,5.43766667 15.1014722,7.13991667 15.1014722,8.07186111" fill="#F7F4F4"></path>
                        <path d="M13.4141944,5.43766667 L13.4141944,9.75913889 C14.3458333,9.75913889 15.1011667,9.00380556 15.1011667,8.07216667 C15.1014722,7.13991667 13.4141944,5.43766667 13.4141944,5.43766667" fill="#E5E5E5"></path>
                        <path d="M3.60922222,2.90125 C3.60922222,3.83319444 2.85358333,4.58822222 1.92194444,4.58822222 C0.99,4.58822222 0.234972222,3.83288889 0.234972222,2.90125 C0.234972222,1.96930556 1.92194444,0.267055556 1.92194444,0.267055556 C1.92194444,0.267055556 3.60922222,1.96930556 3.60922222,2.90125" fill="#F7F4F4"></path>
                        <path d="M1.92194444,0.267055556 L1.92194444,4.58852778 C2.85358333,4.58852778 3.60922222,3.83319444 3.60922222,2.90155556 C3.60922222,1.96930556 1.92194444,0.267055556 1.92194444,0.267055556" fill="#E5E5E5"></path>
                        <path d="M7.43997222,8.07186111 C7.43997222,9.00380556 6.68433333,9.75883333 5.753,9.75883333 C4.82105556,9.75883333 4.06602778,9.0035 4.06602778,8.07186111 C4.06602778,7.13991667 5.753,5.43766667 5.753,5.43766667 C5.753,5.43766667 7.43997222,7.13991667 7.43997222,8.07186111" fill="#F7F4F4"></path>
                        <path d="M5.75269444,5.43766667 L5.75269444,9.75913889 C6.68433333,9.75913889 7.43966667,9.00380556 7.43966667,8.07216667 C7.43997222,7.13991667 5.75269444,5.43766667 5.75269444,5.43766667" fill="#E5E5E5"></path>
                    </g>
                </g>
            </g>
        </g>
        <g id="storm" transform="translate(0.000000, -1.000000)" fill-rule="nonzero">
            <g id="Group">
                <path d="M28.1884167,8.25122222 C27.7209167,3.75619444 23.9213333,0.251166667 19.3025556,0.251166667 C18.4430278,0.251166667 17.6125278,0.375222222 16.8260278,0.601944444 C20.2616944,1.59530556 22.8451667,4.59555556 23.2252778,8.25091667 C25.1291944,8.99341667 26.4791389,10.7656389 26.4791389,12.9326389 C26.4791389,15.7538333 24.19175,17.963 21.3705556,17.963 C24.1948056,17.963 26.2695278,17.963 26.3330833,17.963 C29.1542778,17.963 31.4416667,15.7541389 31.4416667,12.9326389 C31.4416667,10.76625 30.0917222,8.99372222 28.1884167,8.25122222 Z" id="Shape" fill="#DFDDDF"></path>
                <path d="M26.4791389,12.93325 C26.4791389,10.76625 25.1291944,8.95461111 23.2252778,8.21211111 C22.8451667,4.55705556 20.2616944,1.57636111 16.8260278,0.582694444 C15.2362222,1.04102778 13.8276111,1.93752778 12.7349444,3.12155556 C12.0786111,2.8655 11.3651389,2.72830556 10.6180556,2.72830556 C7.61444444,2.72830556 5.14280556,5.00102778 4.82136111,7.91847222 C2.19694444,8.13236111 0.132916667,10.252 0.132916667,12.9320278 C0.132916667,15.7529167 2.42,17.9636111 5.2415,17.9636111 C5.38083333,17.9636111 15.1790833,17.9636111 21.3705556,17.9636111 C24.19175,17.9633056 26.4791389,15.7544444 26.4791389,12.93325 Z" id="Shape" fill="#EDEDED"></path>
            </g>
            <g id="Group" transform="translate(9.777778, 19.555556)">
                <polygon id="Shape" fill="#F6D100" points="2.63786111 13.1663889 11.75625 5.78477778 9.72980556 5.78477778 7.75988889 5.78477778 10.4053889 0.284777778 8.37894444 0.284777778 3.31313889 0.284777778 0.273777778 8.84033333 1.96227778 8.84033333 3.98872222 8.84033333 3.31588889 10.9951111"></polygon>
                <g transform="translate(2.444444, 0.000000)" fill="#EAC300" id="Shape">
                    <polygon points="9.31180556 5.78477778 7.28536111 5.78477778 0.871444444 10.9630278 0.193416667 13.1902222"></polygon>
                    <polygon points="5.31544444 5.78477778 7.96094444 0.284777778 5.9345 0.284777778 3.28930556 5.78477778"></polygon>
                </g>
            </g>
        </g>
    </g>
</svg>